<svg version="1.2" xmlns="http://www.w3.org/2000/svg" viewBox="0 0 1830 388" width="1830" height="388">
	<style>
		.s0 { fill: #ffffff } 
	</style>
	<path id="WOTD" class="s0" aria-label="WOTD"  d="m547.8 37l-106.5 343h-64.5l-84.5-271.8-84.5 271.8h-64.5l-106.5-343h-36.3v-30.3l177 0.1v30.2h-40l71.3 229.3 80.5-259.6 71 0.1 82 263.7 72.7-233.5h-44.5v-30.2h115.5v30.2zm255 320q47.8 0 71-40.2 23.3-40.3 23.3-123 0-83-23.3-123.3-23.2-40.2-71-40.2-47.5 0-71 40.7-23.2 40.5-23.2 122.8 0 82 23.2 122.7 23.5 40.5 71 40.5zm0 30.3q-94.2 0-147.7-51.5-53.5-51.5-53.5-142 0-90.5 53.5-142 53.7-51.8 147.7-51.8 94.3 0 147.8 51.5 53.5 51.5 53.5 142.3 0 90.5-53.8 142-53.5 51.5-147.5 51.5zm512-7.3h-196v-30.2h49.5v-308.8h-102.2v59h-34.3v-93.2h370v93.2h-33.7v-59h-103v308.8h49.7zm260.3-343.1v312.8h34.7q58.5 0 85.5-37.5 27.3-37.5 27.3-119.2 0-81.3-27-118.5-27-37.5-85.8-37.5zm47.5 343h-191.5v-30.3h47.8v-312.8l-47.8 0.1v-30.3h191.5q100.5 0 153.8 48 53.2 48 53.2 138.3 0 90.7-53.5 139-53.3 48-153.5 48z"/>
</svg>