<svg version="1.2" xmlns="http://www.w3.org/2000/svg" viewBox="0 0 1830 388" width="1830" height="388">
	<style>
		.s0 { fill: #1976d2 } 
	</style>
	<path id="WOTD" fill-rule="evenodd" class="s0" d="m547.8 37l-106.5 343h-64.5l-84.5-271.8-84.5 271.8h-64.5l-106.5-343h-36.3v-30.3l177 0.1v30.2h-40l71.3 229.3 80.5-259.6 71 0.1 82 263.7 72.7-233.5h-44.5v-30.2h115.5v30.2zm255 350.3q-94.2 0-147.7-51.5-53.5-51.5-53.5-142 0-90.5 53.5-142 53.7-51.8 147.7-51.8 94.3 0 147.8 51.5 53.5 51.5 53.5 142.3 0 90.5-53.8 141.9-53.5 51.5-147.5 51.5zm0-30.2q47.8 0 71-40.3 23.3-40.2 23.3-123 0-83-23.3-123.2-23.2-40.3-71-40.3-47.5 0-71 40.8-23.2 40.5-23.2 122.7 0 82 23.2 122.8 23.5 40.5 71 40.5zm512 23h-196v-30.3h49.5v-308.7h-102.2v59h-34.3v-93.3h370v93.3h-33.7v-59h-103v308.8l49.7-0.1zm307.8 0h-191.5v-30.2h47.7v-312.8h-47.7v-30.2h191.5q100.5 0 153.7 48 53.3 48 53.3 138.2 0 90.8-53.5 139-53.3 48-153.5 48zm-47.5-342.9v312.7h34.7q58.5 0 85.5-37.5 27.3-37.5 27.3-119.3 0-81.2-27-118.5-27-37.5-85.8-37.5z"/>
</svg>